<?xml version="1.0" encoding="UTF-8" standalone="no" ?>
<!DOCTYPE svg PUBLIC "-//W3C//DTD SVG 1.1//EN" "http://www.w3.org/Graphics/SVG/1.1/DTD/svg11.dtd">
<svg xmlns="http://www.w3.org/2000/svg" xmlns:xlink="http://www.w3.org/1999/xlink" version="1.1" width="1080" height="1080" viewBox="0 0 1080 1080" xml:space="preserve">
<desc>Created with Fabric.js 5.2.4</desc>
<defs>
</defs>
<g transform="matrix(1 0 0 1 540 540)" id="95843f43-8d00-4099-86f1-5abe6c8024d4"  >
<rect style="stroke: none; stroke-width: 1; stroke-dasharray: none; stroke-linecap: butt; stroke-dashoffset: 0; stroke-linejoin: miter; stroke-miterlimit: 4; fill: rgb(255,255,255); fill-rule: nonzero; opacity: 1; visibility: hidden;" vector-effect="non-scaling-stroke"  x="-540" y="-540" rx="0" ry="0" width="1080" height="1080" />
</g>
<g transform="matrix(1 0 0 1 540 540)" id="3afb5a7c-e286-466b-9f75-4e543027a811"  >
</g>
<g transform="matrix(4.08 0 0 4.08 540 540)"  >
<g style=""   >
		<g transform="matrix(1 0 0 1 11 2)"  >
<rect style="stroke: none; stroke-width: 1; stroke-dasharray: none; stroke-linecap: butt; stroke-dashoffset: 0; stroke-linejoin: miter; stroke-miterlimit: 4; fill: rgb(52,52,52); fill-rule: nonzero; opacity: 0.5;" vector-effect="non-scaling-stroke"  x="-0.5" y="-129" rx="0" ry="0" width="1" height="258" />
</g>
		<g transform="matrix(1 0 0 1 -122 2)"  >
<rect style="stroke: none; stroke-width: 1; stroke-dasharray: none; stroke-linecap: butt; stroke-dashoffset: 0; stroke-linejoin: miter; stroke-miterlimit: 4; fill: rgb(52,52,52); fill-rule: nonzero; opacity: 0.5;" vector-effect="non-scaling-stroke"  x="-0.5" y="-129" rx="0" ry="0" width="1" height="258" />
</g>
		<g transform="matrix(1 0 0 1 21 2)"  >
<rect style="stroke: none; stroke-width: 1; stroke-dasharray: none; stroke-linecap: butt; stroke-dashoffset: 0; stroke-linejoin: miter; stroke-miterlimit: 4; fill: rgb(52,52,52); fill-rule: nonzero; opacity: 0.5;" vector-effect="non-scaling-stroke"  x="-0.5" y="-129" rx="0" ry="0" width="1" height="258" />
</g>
		<g transform="matrix(1 0 0 1 -112 2)"  >
<rect style="stroke: none; stroke-width: 1; stroke-dasharray: none; stroke-linecap: butt; stroke-dashoffset: 0; stroke-linejoin: miter; stroke-miterlimit: 4; fill: rgb(52,52,52); fill-rule: nonzero; opacity: 0.5;" vector-effect="non-scaling-stroke"  x="-0.5" y="-129" rx="0" ry="0" width="1" height="258" />
</g>
		<g transform="matrix(1 0 0 1 31 2)"  >
<rect style="stroke: none; stroke-width: 1; stroke-dasharray: none; stroke-linecap: butt; stroke-dashoffset: 0; stroke-linejoin: miter; stroke-miterlimit: 4; fill: rgb(52,52,52); fill-rule: nonzero; opacity: 0.5;" vector-effect="non-scaling-stroke"  x="-0.5" y="-129" rx="0" ry="0" width="1" height="258" />
</g>
		<g transform="matrix(1 0 0 1 -102 2)"  >
<rect style="stroke: none; stroke-width: 1; stroke-dasharray: none; stroke-linecap: butt; stroke-dashoffset: 0; stroke-linejoin: miter; stroke-miterlimit: 4; fill: rgb(52,52,52); fill-rule: nonzero; opacity: 0.5;" vector-effect="non-scaling-stroke"  x="-0.5" y="-129" rx="0" ry="0" width="1" height="258" />
</g>
		<g transform="matrix(1 0 0 1 41 2)"  >
<rect style="stroke: none; stroke-width: 1; stroke-dasharray: none; stroke-linecap: butt; stroke-dashoffset: 0; stroke-linejoin: miter; stroke-miterlimit: 4; fill: rgb(52,52,52); fill-rule: nonzero; opacity: 0.5;" vector-effect="non-scaling-stroke"  x="-0.5" y="-129" rx="0" ry="0" width="1" height="258" />
</g>
		<g transform="matrix(1 0 0 1 -92 2)"  >
<rect style="stroke: none; stroke-width: 1; stroke-dasharray: none; stroke-linecap: butt; stroke-dashoffset: 0; stroke-linejoin: miter; stroke-miterlimit: 4; fill: rgb(52,52,52); fill-rule: nonzero; opacity: 0.5;" vector-effect="non-scaling-stroke"  x="-0.5" y="-129" rx="0" ry="0" width="1" height="258" />
</g>
		<g transform="matrix(1 0 0 1 51 2)"  >
<rect style="stroke: none; stroke-width: 1; stroke-dasharray: none; stroke-linecap: butt; stroke-dashoffset: 0; stroke-linejoin: miter; stroke-miterlimit: 4; fill: rgb(52,52,52); fill-rule: nonzero; opacity: 0.5;" vector-effect="non-scaling-stroke"  x="-0.5" y="-129" rx="0" ry="0" width="1" height="258" />
</g>
		<g transform="matrix(1 0 0 1 -82 2)"  >
<rect style="stroke: none; stroke-width: 1; stroke-dasharray: none; stroke-linecap: butt; stroke-dashoffset: 0; stroke-linejoin: miter; stroke-miterlimit: 4; fill: rgb(52,52,52); fill-rule: nonzero; opacity: 0.5;" vector-effect="non-scaling-stroke"  x="-0.5" y="-129" rx="0" ry="0" width="1" height="258" />
</g>
		<g transform="matrix(1 0 0 1 61 2)"  >
<rect style="stroke: none; stroke-width: 1; stroke-dasharray: none; stroke-linecap: butt; stroke-dashoffset: 0; stroke-linejoin: miter; stroke-miterlimit: 4; fill: rgb(52,52,52); fill-rule: nonzero; opacity: 0.5;" vector-effect="non-scaling-stroke"  x="-0.5" y="-129" rx="0" ry="0" width="1" height="258" />
</g>
		<g transform="matrix(1 0 0 1 -72 2)"  >
<rect style="stroke: none; stroke-width: 1; stroke-dasharray: none; stroke-linecap: butt; stroke-dashoffset: 0; stroke-linejoin: miter; stroke-miterlimit: 4; fill: rgb(52,52,52); fill-rule: nonzero; opacity: 0.5;" vector-effect="non-scaling-stroke"  x="-0.5" y="-129" rx="0" ry="0" width="1" height="258" />
</g>
		<g transform="matrix(1 0 0 1 71 2)"  >
<rect style="stroke: none; stroke-width: 1; stroke-dasharray: none; stroke-linecap: butt; stroke-dashoffset: 0; stroke-linejoin: miter; stroke-miterlimit: 4; fill: rgb(52,52,52); fill-rule: nonzero; opacity: 0.5;" vector-effect="non-scaling-stroke"  x="-0.5" y="-129" rx="0" ry="0" width="1" height="258" />
</g>
		<g transform="matrix(1 0 0 1 -62 2)"  >
<rect style="stroke: none; stroke-width: 1; stroke-dasharray: none; stroke-linecap: butt; stroke-dashoffset: 0; stroke-linejoin: miter; stroke-miterlimit: 4; fill: rgb(52,52,52); fill-rule: nonzero; opacity: 0.5;" vector-effect="non-scaling-stroke"  x="-0.5" y="-129" rx="0" ry="0" width="1" height="258" />
</g>
		<g transform="matrix(1 0 0 1 81 2)"  >
<rect style="stroke: none; stroke-width: 1; stroke-dasharray: none; stroke-linecap: butt; stroke-dashoffset: 0; stroke-linejoin: miter; stroke-miterlimit: 4; fill: rgb(52,52,52); fill-rule: nonzero; opacity: 0.5;" vector-effect="non-scaling-stroke"  x="-0.5" y="-129" rx="0" ry="0" width="1" height="258" />
</g>
		<g transform="matrix(1 0 0 1 -52 2)"  >
<rect style="stroke: none; stroke-width: 1; stroke-dasharray: none; stroke-linecap: butt; stroke-dashoffset: 0; stroke-linejoin: miter; stroke-miterlimit: 4; fill: rgb(52,52,52); fill-rule: nonzero; opacity: 0.5;" vector-effect="non-scaling-stroke"  x="-0.5" y="-129" rx="0" ry="0" width="1" height="258" />
</g>
		<g transform="matrix(1 0 0 1 91 2)"  >
<rect style="stroke: none; stroke-width: 1; stroke-dasharray: none; stroke-linecap: butt; stroke-dashoffset: 0; stroke-linejoin: miter; stroke-miterlimit: 4; fill: rgb(52,52,52); fill-rule: nonzero; opacity: 0.5;" vector-effect="non-scaling-stroke"  x="-0.5" y="-129" rx="0" ry="0" width="1" height="258" />
</g>
		<g transform="matrix(1 0 0 1 -42 2)"  >
<rect style="stroke: none; stroke-width: 1; stroke-dasharray: none; stroke-linecap: butt; stroke-dashoffset: 0; stroke-linejoin: miter; stroke-miterlimit: 4; fill: rgb(52,52,52); fill-rule: nonzero; opacity: 0.5;" vector-effect="non-scaling-stroke"  x="-0.5" y="-129" rx="0" ry="0" width="1" height="258" />
</g>
		<g transform="matrix(1 0 0 1 101 2)"  >
<rect style="stroke: none; stroke-width: 1; stroke-dasharray: none; stroke-linecap: butt; stroke-dashoffset: 0; stroke-linejoin: miter; stroke-miterlimit: 4; fill: rgb(52,52,52); fill-rule: nonzero; opacity: 0.5;" vector-effect="non-scaling-stroke"  x="-0.5" y="-129" rx="0" ry="0" width="1" height="258" />
</g>
		<g transform="matrix(1 0 0 1 -32 2)"  >
<rect style="stroke: none; stroke-width: 1; stroke-dasharray: none; stroke-linecap: butt; stroke-dashoffset: 0; stroke-linejoin: miter; stroke-miterlimit: 4; fill: rgb(52,52,52); fill-rule: nonzero; opacity: 0.5;" vector-effect="non-scaling-stroke"  x="-0.5" y="-129" rx="0" ry="0" width="1" height="258" />
</g>
		<g transform="matrix(1 0 0 1 111 2)"  >
<rect style="stroke: none; stroke-width: 1; stroke-dasharray: none; stroke-linecap: butt; stroke-dashoffset: 0; stroke-linejoin: miter; stroke-miterlimit: 4; fill: rgb(52,52,52); fill-rule: nonzero; opacity: 0.5;" vector-effect="non-scaling-stroke"  x="-0.5" y="-129" rx="0" ry="0" width="1" height="258" />
</g>
		<g transform="matrix(1 0 0 1 -22 2)"  >
<rect style="stroke: none; stroke-width: 1; stroke-dasharray: none; stroke-linecap: butt; stroke-dashoffset: 0; stroke-linejoin: miter; stroke-miterlimit: 4; fill: rgb(52,52,52); fill-rule: nonzero; opacity: 0.5;" vector-effect="non-scaling-stroke"  x="-0.5" y="-129" rx="0" ry="0" width="1" height="258" />
</g>
		<g transform="matrix(1 0 0 1 121 2)"  >
<rect style="stroke: none; stroke-width: 1; stroke-dasharray: none; stroke-linecap: butt; stroke-dashoffset: 0; stroke-linejoin: miter; stroke-miterlimit: 4; fill: rgb(52,52,52); fill-rule: nonzero; opacity: 0.5;" vector-effect="non-scaling-stroke"  x="-0.5" y="-129" rx="0" ry="0" width="1" height="258" />
</g>
		<g transform="matrix(1 0 0 1 -12 2)"  >
<rect style="stroke: none; stroke-width: 1; stroke-dasharray: none; stroke-linecap: butt; stroke-dashoffset: 0; stroke-linejoin: miter; stroke-miterlimit: 4; fill: rgb(52,52,52); fill-rule: nonzero; opacity: 0.5;" vector-effect="non-scaling-stroke"  x="-0.5" y="-129" rx="0" ry="0" width="1" height="258" />
</g>
		<g transform="matrix(0 -1 1 0 -0.5 -5.5)"  >
<rect style="stroke: none; stroke-width: 1; stroke-dasharray: none; stroke-linecap: butt; stroke-dashoffset: 0; stroke-linejoin: miter; stroke-miterlimit: 4; fill: rgb(52,52,52); fill-rule: nonzero; opacity: 0.5;" vector-effect="non-scaling-stroke"  x="-0.5" y="-133" rx="0" ry="0" width="1" height="266" />
</g>
		<g transform="matrix(0 -1 1 0 -0.5 -15.5)"  >
<rect style="stroke: none; stroke-width: 1; stroke-dasharray: none; stroke-linecap: butt; stroke-dashoffset: 0; stroke-linejoin: miter; stroke-miterlimit: 4; fill: rgb(52,52,52); fill-rule: nonzero; opacity: 0.5;" vector-effect="non-scaling-stroke"  x="-0.5" y="-133" rx="0" ry="0" width="1" height="266" />
</g>
		<g transform="matrix(0 -1 1 0 -0.5 -25.5)"  >
<rect style="stroke: none; stroke-width: 1; stroke-dasharray: none; stroke-linecap: butt; stroke-dashoffset: 0; stroke-linejoin: miter; stroke-miterlimit: 4; fill: rgb(52,52,52); fill-rule: nonzero; opacity: 0.5;" vector-effect="non-scaling-stroke"  x="-0.5" y="-133" rx="0" ry="0" width="1" height="266" />
</g>
		<g transform="matrix(0 -1 1 0 -0.5 -35.5)"  >
<rect style="stroke: none; stroke-width: 1; stroke-dasharray: none; stroke-linecap: butt; stroke-dashoffset: 0; stroke-linejoin: miter; stroke-miterlimit: 4; fill: rgb(52,52,52); fill-rule: nonzero; opacity: 0.5;" vector-effect="non-scaling-stroke"  x="-0.5" y="-133" rx="0" ry="0" width="1" height="266" />
</g>
		<g transform="matrix(0 -1 1 0 -0.5 -45.5)"  >
<rect style="stroke: none; stroke-width: 1; stroke-dasharray: none; stroke-linecap: butt; stroke-dashoffset: 0; stroke-linejoin: miter; stroke-miterlimit: 4; fill: rgb(52,52,52); fill-rule: nonzero; opacity: 0.5;" vector-effect="non-scaling-stroke"  x="-0.5" y="-133" rx="0" ry="0" width="1" height="266" />
</g>
		<g transform="matrix(0 -1 1 0 -0.5 -56.5)"  >
<rect style="stroke: none; stroke-width: 1; stroke-dasharray: none; stroke-linecap: butt; stroke-dashoffset: 0; stroke-linejoin: miter; stroke-miterlimit: 4; fill: rgb(52,52,52); fill-rule: nonzero; opacity: 0.5;" vector-effect="non-scaling-stroke"  x="-0.5" y="-133" rx="0" ry="0" width="1" height="266" />
</g>
		<g transform="matrix(0 -1 1 0 -0.5 -66.5)"  >
<rect style="stroke: none; stroke-width: 1; stroke-dasharray: none; stroke-linecap: butt; stroke-dashoffset: 0; stroke-linejoin: miter; stroke-miterlimit: 4; fill: rgb(52,52,52); fill-rule: nonzero; opacity: 0.5;" vector-effect="non-scaling-stroke"  x="-0.5" y="-133" rx="0" ry="0" width="1" height="266" />
</g>
		<g transform="matrix(0 -1 1 0 -0.5 -76.5)"  >
<rect style="stroke: none; stroke-width: 1; stroke-dasharray: none; stroke-linecap: butt; stroke-dashoffset: 0; stroke-linejoin: miter; stroke-miterlimit: 4; fill: rgb(52,52,52); fill-rule: nonzero; opacity: 0.5;" vector-effect="non-scaling-stroke"  x="-0.5" y="-133" rx="0" ry="0" width="1" height="266" />
</g>
		<g transform="matrix(0 -1 1 0 -0.5 -86.5)"  >
<rect style="stroke: none; stroke-width: 1; stroke-dasharray: none; stroke-linecap: butt; stroke-dashoffset: 0; stroke-linejoin: miter; stroke-miterlimit: 4; fill: rgb(52,52,52); fill-rule: nonzero; opacity: 0.5;" vector-effect="non-scaling-stroke"  x="-0.5" y="-133" rx="0" ry="0" width="1" height="266" />
</g>
		<g transform="matrix(0 -1 1 0 -0.5 -96.5)"  >
<rect style="stroke: none; stroke-width: 1; stroke-dasharray: none; stroke-linecap: butt; stroke-dashoffset: 0; stroke-linejoin: miter; stroke-miterlimit: 4; fill: rgb(52,52,52); fill-rule: nonzero; opacity: 0.5;" vector-effect="non-scaling-stroke"  x="-0.5" y="-133" rx="0" ry="0" width="1" height="266" />
</g>
		<g transform="matrix(0 -1 1 0 -0.5 -106.5)"  >
<rect style="stroke: none; stroke-width: 1; stroke-dasharray: none; stroke-linecap: butt; stroke-dashoffset: 0; stroke-linejoin: miter; stroke-miterlimit: 4; fill: rgb(52,52,52); fill-rule: nonzero; opacity: 0.5;" vector-effect="non-scaling-stroke"  x="-0.5" y="-133" rx="0" ry="0" width="1" height="266" />
</g>
		<g transform="matrix(0 -1 1 0 -0.5 -116.5)"  >
<rect style="stroke: none; stroke-width: 1; stroke-dasharray: none; stroke-linecap: butt; stroke-dashoffset: 0; stroke-linejoin: miter; stroke-miterlimit: 4; fill: rgb(52,52,52); fill-rule: nonzero; opacity: 0.5;" vector-effect="non-scaling-stroke"  x="-0.5" y="-133" rx="0" ry="0" width="1" height="266" />
</g>
		<g transform="matrix(0 -1 1 0 -0.5 117.5)"  >
<rect style="stroke: none; stroke-width: 1; stroke-dasharray: none; stroke-linecap: butt; stroke-dashoffset: 0; stroke-linejoin: miter; stroke-miterlimit: 4; fill: rgb(52,52,52); fill-rule: nonzero; opacity: 0.5;" vector-effect="non-scaling-stroke"  x="-0.5" y="-133" rx="0" ry="0" width="1" height="266" />
</g>
		<g transform="matrix(0 -1 1 0 -0.5 107.5)"  >
<rect style="stroke: none; stroke-width: 1; stroke-dasharray: none; stroke-linecap: butt; stroke-dashoffset: 0; stroke-linejoin: miter; stroke-miterlimit: 4; fill: rgb(52,52,52); fill-rule: nonzero; opacity: 0.5;" vector-effect="non-scaling-stroke"  x="-0.5" y="-133" rx="0" ry="0" width="1" height="266" />
</g>
		<g transform="matrix(0 -1 1 0 -0.5 97.5)"  >
<rect style="stroke: none; stroke-width: 1; stroke-dasharray: none; stroke-linecap: butt; stroke-dashoffset: 0; stroke-linejoin: miter; stroke-miterlimit: 4; fill: rgb(52,52,52); fill-rule: nonzero; opacity: 0.5;" vector-effect="non-scaling-stroke"  x="-0.5" y="-133" rx="0" ry="0" width="1" height="266" />
</g>
		<g transform="matrix(0 -1 1 0 -0.5 87.5)"  >
<rect style="stroke: none; stroke-width: 1; stroke-dasharray: none; stroke-linecap: butt; stroke-dashoffset: 0; stroke-linejoin: miter; stroke-miterlimit: 4; fill: rgb(52,52,52); fill-rule: nonzero; opacity: 0.5;" vector-effect="non-scaling-stroke"  x="-0.5" y="-133" rx="0" ry="0" width="1" height="266" />
</g>
		<g transform="matrix(0 -1 1 0 -0.5 77.5)"  >
<rect style="stroke: none; stroke-width: 1; stroke-dasharray: none; stroke-linecap: butt; stroke-dashoffset: 0; stroke-linejoin: miter; stroke-miterlimit: 4; fill: rgb(52,52,52); fill-rule: nonzero; opacity: 0.5;" vector-effect="non-scaling-stroke"  x="-0.5" y="-133" rx="0" ry="0" width="1" height="266" />
</g>
		<g transform="matrix(0 -1 1 0 -0.5 66.5)"  >
<rect style="stroke: none; stroke-width: 1; stroke-dasharray: none; stroke-linecap: butt; stroke-dashoffset: 0; stroke-linejoin: miter; stroke-miterlimit: 4; fill: rgb(52,52,52); fill-rule: nonzero; opacity: 0.5;" vector-effect="non-scaling-stroke"  x="-0.5" y="-133" rx="0" ry="0" width="1" height="266" />
</g>
		<g transform="matrix(0 -1 1 0 -0.5 56.5)"  >
<rect style="stroke: none; stroke-width: 1; stroke-dasharray: none; stroke-linecap: butt; stroke-dashoffset: 0; stroke-linejoin: miter; stroke-miterlimit: 4; fill: rgb(52,52,52); fill-rule: nonzero; opacity: 0.5;" vector-effect="non-scaling-stroke"  x="-0.5" y="-133" rx="0" ry="0" width="1" height="266" />
</g>
		<g transform="matrix(0 -1 1 0 -0.5 46.5)"  >
<rect style="stroke: none; stroke-width: 1; stroke-dasharray: none; stroke-linecap: butt; stroke-dashoffset: 0; stroke-linejoin: miter; stroke-miterlimit: 4; fill: rgb(52,52,52); fill-rule: nonzero; opacity: 0.5;" vector-effect="non-scaling-stroke"  x="-0.5" y="-133" rx="0" ry="0" width="1" height="266" />
</g>
		<g transform="matrix(0 -1 1 0 -0.5 36.5)"  >
<rect style="stroke: none; stroke-width: 1; stroke-dasharray: none; stroke-linecap: butt; stroke-dashoffset: 0; stroke-linejoin: miter; stroke-miterlimit: 4; fill: rgb(52,52,52); fill-rule: nonzero; opacity: 0.5;" vector-effect="non-scaling-stroke"  x="-0.5" y="-133" rx="0" ry="0" width="1" height="266" />
</g>
		<g transform="matrix(0 -1 1 0 -0.5 26.5)"  >
<rect style="stroke: none; stroke-width: 1; stroke-dasharray: none; stroke-linecap: butt; stroke-dashoffset: 0; stroke-linejoin: miter; stroke-miterlimit: 4; fill: rgb(52,52,52); fill-rule: nonzero; opacity: 0.5;" vector-effect="non-scaling-stroke"  x="-0.5" y="-133" rx="0" ry="0" width="1" height="266" />
</g>
		<g transform="matrix(0 -1 1 0 -0.5 16.5)"  >
<rect style="stroke: none; stroke-width: 1; stroke-dasharray: none; stroke-linecap: butt; stroke-dashoffset: 0; stroke-linejoin: miter; stroke-miterlimit: 4; fill: rgb(52,52,52); fill-rule: nonzero; opacity: 0.5;" vector-effect="non-scaling-stroke"  x="-0.5" y="-133" rx="0" ry="0" width="1" height="266" />
</g>
		<g transform="matrix(1 0 0 1 -1 2)"  >
<rect style="stroke: none; stroke-width: 1; stroke-dasharray: none; stroke-linecap: butt; stroke-dashoffset: 0; stroke-linejoin: miter; stroke-miterlimit: 4; fill: rgb(52,52,52); fill-rule: nonzero; opacity: 1;" vector-effect="non-scaling-stroke"  x="-0.5" y="-129" rx="0" ry="0" width="1" height="258" />
</g>
		<g transform="matrix(0 -1 1 0 -0.5 5.5)"  >
<rect style="stroke: none; stroke-width: 1; stroke-dasharray: none; stroke-linecap: butt; stroke-dashoffset: 0; stroke-linejoin: miter; stroke-miterlimit: 4; fill: rgb(52,52,52); fill-rule: nonzero; opacity: 1;" vector-effect="non-scaling-stroke"  x="-0.5" y="-133" rx="0" ry="0" width="1" height="266" />
</g>
		<g transform="matrix(0 -1 1 0 -0.5 -126.5)"  >
<rect style="stroke: none; stroke-width: 1; stroke-dasharray: none; stroke-linecap: butt; stroke-dashoffset: 0; stroke-linejoin: miter; stroke-miterlimit: 4; fill: rgb(52,52,52); fill-rule: nonzero; opacity: 1;" vector-effect="non-scaling-stroke"  x="-0.5" y="-133" rx="0" ry="0" width="1" height="266" />
</g>
		<g transform="matrix(-1 0 0 1 132 2)"  >
<rect style="stroke: none; stroke-width: 1; stroke-dasharray: none; stroke-linecap: butt; stroke-dashoffset: 0; stroke-linejoin: miter; stroke-miterlimit: 4; fill: rgb(52,52,52); fill-rule: nonzero; opacity: 1;" vector-effect="non-scaling-stroke"  x="-0.5" y="-129" rx="0" ry="0" width="1" height="258" />
</g>
</g>
</g>
</svg>